<svg width="12" height="14" viewBox="0 0 12 14" fill="none" xmlns="http://www.w3.org/2000/svg">
<path d="M5.99996 2.06939L3.06663 5.10695C2.48654 5.70771 2.09151 6.47311 1.93149 7.30635C1.77146 8.13959 1.85364 9.00326 2.16761 9.78814C2.48159 10.573 3.01327 11.2439 3.69542 11.7159C4.37757 12.1878 5.17955 12.4398 5.99996 12.4398C6.82037 12.4398 7.62235 12.1878 8.3045 11.7159C8.98665 11.2439 9.51833 10.573 9.83231 9.78814C10.1463 9.00326 10.2285 8.13959 10.0684 7.30635C9.90841 6.47311 9.51338 5.70771 8.93329 5.10695L5.99996 2.06939ZM5.99996 0.333984L9.77122 4.23925C10.5171 5.01164 11.025 5.99572 11.2308 7.06704C11.4366 8.13837 11.331 9.24882 10.9273 10.258C10.5236 11.2672 9.84005 12.1297 8.96299 12.7366C8.08593 13.3434 7.05479 13.6673 5.99996 13.6673C4.94513 13.6673 3.91399 13.3434 3.03693 12.7366C2.15987 12.1297 1.47628 11.2672 1.07261 10.258C0.668941 9.24882 0.56332 8.13837 0.769102 7.06704C0.974885 5.99572 1.48283 5.01164 2.2287 4.23925L5.99996 0.333984Z" fill="black"/>
</svg>
