<svg width="14" height="14" viewBox="0 0 14 14" fill="none" xmlns="http://www.w3.org/2000/svg">
<path d="M6.00004 10.3335H1.66671V9.00018H6.00004C6.42587 9.00033 6.84354 9.11701 7.2078 9.33758C7.57206 9.55815 7.86901 9.87419 8.06648 10.2515C8.26395 10.6287 8.35442 11.0529 8.32807 11.4779C8.30172 11.9029 8.15957 12.3126 7.91701 12.6626C7.67446 13.0126 7.34075 13.2895 6.95204 13.4634C6.56333 13.6373 6.13444 13.7015 5.71185 13.6491C5.28926 13.5966 4.88908 13.4296 4.55467 13.1659C4.22025 12.9023 3.96436 12.5522 3.81471 12.1535L5.06337 11.6848C5.12749 11.8557 5.23715 12.0058 5.38046 12.1188C5.52377 12.2318 5.69527 12.3034 5.87638 12.3259C6.05749 12.3484 6.2413 12.3209 6.4079 12.2464C6.5745 12.1719 6.71753 12.0532 6.8215 11.9032C6.92546 11.7532 6.9864 11.5776 6.9977 11.3955C7.00901 11.2133 6.97025 11.0315 6.88563 10.8698C6.80101 10.7081 6.67375 10.5727 6.51765 10.4781C6.36154 10.3836 6.18254 10.3336 6.00004 10.3335ZM2.33337 6.33351H11.3334C11.7592 6.33367 12.1769 6.45035 12.5411 6.67091C12.9054 6.89148 13.2023 7.20752 13.3998 7.5848C13.5973 7.96208 13.6878 8.3862 13.6614 8.81121C13.6351 9.23623 13.4929 9.64593 13.2503 9.99593C13.0078 10.3459 12.6741 10.6229 12.2854 10.7968C11.8967 10.9707 11.4678 11.0349 11.0452 10.9824C10.6226 10.93 10.2224 10.7629 9.888 10.4993C9.55359 10.2356 9.29769 9.88552 9.14804 9.48685L10.3967 9.01818C10.4608 9.18905 10.5705 9.33911 10.7138 9.45211C10.8571 9.56511 11.0286 9.63673 11.2097 9.65922C11.3908 9.68172 11.5746 9.65422 11.7412 9.57971C11.9078 9.50519 12.0509 9.38651 12.1548 9.23652C12.2588 9.08653 12.3197 8.91094 12.331 8.72879C12.3423 8.54664 12.3036 8.36487 12.219 8.20317C12.1343 8.04148 12.0071 7.90602 11.851 7.81148C11.6949 7.71694 11.5159 7.66692 11.3334 7.66685H2.33337C1.80294 7.66685 1.29423 7.45613 0.919161 7.08106C0.544088 6.70599 0.333374 6.19728 0.333374 5.66685C0.333374 5.13641 0.544088 4.62771 0.919161 4.25263C1.29423 3.87756 1.80294 3.66685 2.33337 3.66685H8.00004C8.18254 3.66677 8.36154 3.61675 8.51765 3.52221C8.67375 3.42767 8.80101 3.29222 8.88563 3.13052C8.97025 2.96882 9.00901 2.78705 8.9977 2.6049C8.9864 2.42275 8.92546 2.24717 8.8215 2.09717C8.71753 1.94718 8.5745 1.8285 8.4079 1.75399C8.2413 1.67948 8.05749 1.65198 7.87638 1.67447C7.69527 1.69696 7.52377 1.76859 7.38046 1.88159C7.23715 1.99458 7.12749 2.14465 7.06337 2.31551L5.81471 1.84751C6.00702 1.33605 6.37269 0.908274 6.848 0.63872C7.32331 0.369166 7.87813 0.274924 8.41579 0.372413C8.95345 0.469902 9.43986 0.752942 9.79027 1.17222C10.1407 1.59149 10.3329 2.12042 10.3334 2.66685C10.3334 3.28569 10.0875 3.87918 9.64996 4.31676C9.21237 4.75435 8.61888 5.00018 8.00004 5.00018H2.33337C2.15656 5.00018 1.98699 5.07042 1.86197 5.19544C1.73695 5.32047 1.66671 5.49004 1.66671 5.66685C1.66671 5.84366 1.73695 6.01323 1.86197 6.13825C1.98699 6.26328 2.15656 6.33351 2.33337 6.33351Z" fill="black"/>
</svg>
